<svg xmlns="http://www.w3.org/2000/svg" width="56" height="56" fill="none" viewBox="0 0 56 56">
  <circle cx="28" cy="28" r="28" fill="#2E3E5C"/>
  <path fill="#fff" fill-rule="evenodd" d="M31.288 26.234c0 2.922-2.334 5.234-5.144 5.234S21 29.156 21 26.234 23.334 21 26.144 21s5.144 2.312 5.144 5.234Zm-.778 6.952a8.041 8.041 0 0 1-4.366 1.282c-4.498 0-8.144-3.686-8.144-8.234C18 21.687 21.646 18 26.144 18s8.144 3.687 8.144 8.234a8.258 8.258 0 0 1-1.595 4.895l5.218 5.297-2.105 2.137-5.296-5.377Z" clip-rule="evenodd"/>
</svg>
